<?xml version="1.0" encoding="utf-8"?>
<!-- Generator: Adobe Illustrator 27.3.1, SVG Export Plug-In . SVG Version: 6.00 Build 0)  -->
<svg version="1.1" id="Capa_1" xmlns="http://www.w3.org/2000/svg" xmlns:xlink="http://www.w3.org/1999/xlink" x="0px" y="0px"
	 viewBox="0 0 133 133" style="enable-background:new 0 0 133 133;" xml:space="preserve">
<g>
	<path d="M63.5,95.78c0-1.85,0-3.69,0-5.54c-0.01-20.51-0.01-41.02-0.01-61.53c0-0.45,0-0.91,0.07-1.36
		c0.22-1.59,1.64-2.93,3.15-3.03c1.28-0.08,2.96,1.15,3.34,2.54c0.17,0.63,0.23,1.3,0.23,1.96c0.02,22.25,0.02,44.49,0.03,66.74
		c0,0.76,0,1.53,0,2.51c0.42-0.32,0.66-0.46,0.85-0.64c8.87-8.67,17.73-17.35,26.6-26.02c0.47-0.46,0.95-0.93,1.5-1.28
		c1.6-1,3.51-0.7,4.56,0.67c1.09,1.41,0.95,3.04-0.48,4.45c-6.39,6.3-12.8,12.58-19.18,18.88c-3.91,3.86-7.78,7.77-11.68,11.65
		c-0.73,0.73-1.47,1.45-2.26,2.12c-1.23,1.04-2.98,1.06-4.21,0.03c-1.27-1.07-2.51-2.18-3.73-3.31c-1.18-1.1-2.31-2.25-3.46-3.38
		c-9.43-9.21-18.87-18.43-28.3-27.64c-0.32-0.32-0.64-0.64-0.94-0.99c-1.47-1.69-1.47-3.3-0.02-4.71c1.43-1.39,3.26-1.32,4.81,0.19
		c9.05,8.84,18.09,17.68,27.14,26.52c0.49,0.48,1,0.93,1.5,1.39C63.17,95.91,63.33,95.84,63.5,95.78z"/>
</g>
</svg>
