<?xml version="1.0" encoding="utf-8"?>
<!-- Generator: Adobe Illustrator 27.3.1, SVG Export Plug-In . SVG Version: 6.00 Build 0)  -->
<svg version="1.1" id="Capa_1" xmlns="http://www.w3.org/2000/svg" xmlns:xlink="http://www.w3.org/1999/xlink" x="0px" y="0px"
	 viewBox="0 0 133 133" style="enable-background:new 0 0 133 133;" xml:space="preserve">
<g>
	<path d="M104.99,66.08c-0.25-0.29-0.49-0.58-0.76-0.86c-9.46-9.65-18.93-19.3-28.39-28.96c-1.82-1.86-3.62-3.74-5.4-5.65
		c-0.36-0.38-0.55-0.91-0.82-1.37c0.12-0.14,0.23-0.27,0.35-0.41c0.47,0.25,1.04,0.41,1.41,0.77c3.11,3.09,6.19,6.21,9.26,9.33
		c5.22,5.31,10.44,10.61,15.63,15.94c3.54,3.65,7,7.37,10.54,11.02c0.78,0.8,0.45,1.37-0.14,2c-2.46,2.63-4.88,5.28-7.38,7.87
		c-8.73,9.04-17.49,18.05-26.24,27.07c-0.45,0.47-0.96,0.89-1.41,1.32c-0.87-0.41-0.88-0.95-0.42-1.53c0.41-0.52,0.87-1,1.33-1.47
		c7.45-7.63,14.91-15.26,22.36-22.9c3.12-3.19,6.21-6.41,9.31-9.62c0.13-0.14,0.21-0.33,0.38-0.61c-0.27-0.06-0.45-0.14-0.62-0.14
		c-25.43,0.01-50.87,0.02-76.3,0.03c-0.45,0-0.94,0.04-1.35-0.1c-0.27-0.1-0.58-0.5-0.58-0.77c-0.01-0.2,0.42-0.55,0.69-0.6
		c0.56-0.1,1.15-0.06,1.73-0.06c24.61,0,49.21,0.01,73.82,0.01c0.94,0,1.88,0,2.83,0C104.86,66.3,104.93,66.19,104.99,66.08z"/>
</g>
</svg>
