<?xml version="1.0" encoding="utf-8"?>
<!-- Generator: Adobe Illustrator 27.3.1, SVG Export Plug-In . SVG Version: 6.00 Build 0)  -->
<svg version="1.1" id="Capa_1" xmlns="http://www.w3.org/2000/svg" xmlns:xlink="http://www.w3.org/1999/xlink" x="0px" y="0px"
	 viewBox="0 0 292 292" style="enable-background:new 0 0 292 292;" xml:space="preserve">
<g>
	<path d="M182.52,44.13c3.74,3.75,7.21,7.26,10.7,10.75c0.51,0.51,0.41,0.83-0.08,1.32c-27.65,27.61-55.28,55.23-82.91,82.86
		c-0.21,0.21-0.4,0.43-0.63,0.6c-0.67,0.5-0.61,0.9-0.02,1.49c11.96,11.88,23.92,23.76,35.84,35.68
		c19.12,19.11,38.21,38.25,57.32,57.36c0.81,0.81,1.76,1.5,2.56,2.18c-4.01,4.02-7.72,7.74-11.46,11.49
		c-10.43-10.44-20.93-20.95-31.44-31.46c-24.31-24.31-48.62-48.62-72.93-72.92c-0.79-0.79-1.55-1.62-2.37-2.38
		c-0.56-0.51-0.57-0.82,0-1.39c16.14-16.09,32.27-32.21,48.39-48.32c15.09-15.09,30.19-30.18,45.27-45.28
		C181.35,45.54,181.86,44.89,182.52,44.13z"/>
</g>
</svg>
