<?xml version="1.0" encoding="utf-8"?>
<!-- Generator: Adobe Illustrator 27.3.1, SVG Export Plug-In . SVG Version: 6.00 Build 0)  -->
<svg version="1.1" id="Capa_1" xmlns="http://www.w3.org/2000/svg" xmlns:xlink="http://www.w3.org/1999/xlink" x="0px" y="0px"
	 viewBox="0 0 133 133" style="enable-background:new 0 0 133 133;" xml:space="preserve">
<style type="text/css">
	.st0{fill:#8400EC;}
</style>
<g>
	<path class="st0" d="M86.42,42.35c-0.67-0.14-1.04-0.26-1.42-0.28c-0.87-0.04-1.74-0.04-2.6-0.04c-11.12-0.1-22.24-0.19-33.36-0.3
		c-0.99-0.01-1.98-0.12-2.97-0.22c-1.73-0.18-3.11-1.67-3.08-3.31c0.02-1.68,1.37-3.23,3.13-3.24c4.75-0.04,9.51,0.05,14.26,0.08
		c1.24,0.01,2.48-0.09,3.71-0.08c8.81,0.08,17.61,0.18,26.42,0.29c1.07,0.01,2.15,0.11,3.22,0.19c2.01,0.17,3.16,1.25,3.45,3.25
		c0.06,0.41,0.05,0.82,0.05,1.24c0,15.38,0,30.77,0.01,46.15c0,1.25-0.25,2.4-1.18,3.27c-0.92,0.86-1.99,1.32-3.29,0.81
		c-1.43-0.56-2.08-1.68-2.32-3.11c-0.06-0.36-0.02-0.74-0.02-1.11c0-11.99,0-23.99,0-35.98c0-0.52,0-1.04,0-1.83
		c-0.53,0.31-0.84,0.41-1.05,0.62C79.25,59.02,69.16,69.32,59.01,79.56c-5.5,5.54-11.11,10.98-16.68,16.46
		c-0.44,0.43-0.88,0.88-1.37,1.26c-1.43,1.09-2.96,1.02-4.15-0.15c-1.22-1.19-1.42-2.92-0.33-4.26c1.22-1.5,2.54-2.95,3.9-4.32
		c8.27-8.33,16.56-16.64,24.87-24.95c6.69-6.69,13.41-13.36,20.12-20.05C85.67,43.26,85.91,42.94,86.42,42.35z"/>
</g>
</svg>
