<?xml version="1.0" encoding="utf-8"?>
<!-- Generator: Adobe Illustrator 27.3.1, SVG Export Plug-In . SVG Version: 6.00 Build 0)  -->
<svg version="1.1" id="Capa_1" xmlns="http://www.w3.org/2000/svg" xmlns:xlink="http://www.w3.org/1999/xlink" x="0px" y="0px"
	 viewBox="0 0 803 629" style="enable-background:new 0 0 803 629;" xml:space="preserve">
<g>
	<path d="M758.28,547.54c-57.63-17.03-114.27-33.79-170.93-50.48c-27.23-8.02-54.49-15.94-81.74-23.87
		c-17.39-5.06-24.43-14.99-23.36-33.11c0.11-1.86,0.25-3.72,0.26-5.59c0.15-95.27,0.33-190.54,0.41-285.82
		c0.02-25.94-0.32-51.88-0.38-77.82c-0.05-22.38,6.87-27.46,28.47-21.17c87.94,25.61,175.88,51.2,263.83,76.8
		c14.88,4.33,19.97,10.21,20.32,25.72c0.44,19.28,0.08,38.58,0.11,57.87c0.13,79.08,0.18,158.16,0.46,237.24
		c0.1,26.93,0.76,53.86,1.19,80.79c0.3,18.79-6.54,34.34-22.39,44.64c-11.03,7.17-20.88,15.41-30.47,24.34
		c-29.44,27.41-64.26,31.9-101.53,20.97c-25.83-7.58-50.96-17.5-76.78-25.11c-50.68-14.94-101.66-28.86-152.44-43.47
		c-24.78-7.13-27.89-11.49-27.95-37.33c-0.1-46.91-0.03-93.83-0.03-140.74c0-60.2-0.03-120.4,0.02-180.59
		c0.01-17.01,0.34-34.03,0.38-51.04c0.06-23.69-7.88-33.72-30.69-40.19c-65.6-18.6-131.15-37.4-196.73-56.07
		c-9.75-2.78-19.47-5.86-29.4-7.77c-16.72-3.21-31.47,1.57-44.58,12.39c-8.92,7.37-18.27,14.23-27.54,21.17
		c-3.8,2.84-7.43,5.57-6.3,11.06c1.09,5.31,5.28,6.92,9.86,8.21c76.61,21.52,153.22,43.02,229.8,64.65
		c20.34,5.75,28.32,16.54,28.27,38.32c-0.07,26.97-0.72,53.94-0.74,80.91c-0.1,95.69-0.02,191.39-0.1,287.08
		c0,5.36-0.57,10.76-1.42,16.06c-0.84,5.23-4.32,8.32-9.7,7.39c-8.55-1.47-17.13-3.07-25.44-5.5
		c-82.76-24.14-165.47-48.46-248.18-72.73c-19.81-5.82-26.71-14.99-26.68-35.7c0.11-69.12,0.36-138.23,0.37-207.35
		C6.53,206.28,6.4,150.87,6.07,95.45C5.96,77.91,12.4,64.77,28.06,55.93c6.37-3.6,12.15-8.7,17.24-14.02
		c17.07-17.84,36.51-31.32,61.47-35.14c20.55-3.15,40.78-0.64,60.03,6.54C238,39.84,311.22,59.54,384.63,78.69
		c22.86,5.97,31.44,17.62,31.43,41.34c-0.04,97.77-0.09,195.53-0.22,293.3c-0.04,27.6-0.45,55.2-0.57,82.8
		c-0.08,18.47,4.65,24.71,22.48,29.92c77.97,22.79,155.97,45.47,233.91,68.39c13.27,3.9,24.43,1.84,35.28-7.14
		c15.34-12.69,31.55-24.32,47.37-36.42C755.42,550.03,756.46,549.08,758.28,547.54z"/>
</g>
</svg>
